<svg width="317" height="50" viewBox="0 0 317 50" fill="none" xmlns="http://www.w3.org/2000/svg">
<path d="M59.1125 37.532C56.4525 37.532 54.2105 36.962 52.3865 35.822C50.5625 34.6567 49.2578 33.0353 48.4725 30.958L53.7165 27.918C54.7805 30.3753 56.6425 31.604 59.3025 31.604C61.7091 31.604 62.9125 30.882 62.9125 29.438C62.9125 28.6273 62.5198 28.0193 61.7345 27.614C60.9238 27.1327 59.4798 26.6133 57.4025 26.056C55.2745 25.4733 53.4758 24.6373 52.0065 23.548C50.3851 22.2307 49.5745 20.3687 49.5745 17.962C49.5745 15.5047 50.4485 13.5413 52.1965 12.072C53.9698 10.6027 56.0725 9.868 58.5045 9.868C60.6831 9.868 62.6085 10.3873 64.2805 11.426C65.9525 12.4393 67.2698 13.9213 68.2325 15.872L63.1025 18.874C62.1398 16.822 60.6071 15.796 58.5045 15.796C57.6178 15.796 56.9211 15.986 56.4145 16.366C55.9078 16.746 55.6545 17.2273 55.6545 17.81C55.6545 18.4433 55.9585 19.0133 56.5665 19.52C57.2251 20.0267 58.5171 20.5587 60.4425 21.116L62.9125 21.914C63.5458 22.1167 64.2805 22.4587 65.1165 22.94C66.0285 23.396 66.7125 23.89 67.1685 24.422C68.3845 25.7393 68.9925 27.386 68.9925 29.362C68.9925 31.87 68.0805 33.8713 66.2565 35.366C64.4325 36.81 62.0511 37.532 59.1125 37.532ZM82.4254 26.436V31.148H93.0654V37H76.3454V10.4H92.8754V16.252H82.4254V20.66H91.9254V26.436H82.4254ZM123.306 33.542C120.621 36.202 117.353 37.532 113.502 37.532C109.652 37.532 106.384 36.202 103.698 33.542C101.013 30.882 99.6703 27.6013 99.6703 23.7C99.6703 19.7987 101.013 16.518 103.698 13.858C106.384 11.198 109.652 9.868 113.502 9.868C117.353 9.868 120.621 11.198 123.306 13.858C125.992 16.518 127.334 19.7987 127.334 23.7C127.334 27.6013 125.992 30.882 123.306 33.542ZM105.75 23.7C105.75 26.0307 106.485 27.9307 107.954 29.4C109.424 30.8693 111.273 31.604 113.502 31.604C115.706 31.604 117.543 30.8693 119.012 29.4C120.507 27.9053 121.254 26.0053 121.254 23.7C121.254 21.3947 120.507 19.4947 119.012 18C117.543 16.5307 115.706 15.796 113.502 15.796C111.273 15.796 109.424 16.5307 107.954 18C106.485 19.4693 105.75 21.3693 105.75 23.7Z" fill="#14161B"/>
<path d="M148.86 19.896C148.02 20.736 146.992 21.156 145.776 21.156C144.56 21.156 143.528 20.736 142.68 19.896C141.84 19.048 141.42 18.016 141.42 16.8C141.42 15.584 141.84 14.556 142.68 13.716C143.528 12.868 144.56 12.444 145.776 12.444C146.992 12.444 148.02 12.868 148.86 13.716C149.708 14.556 150.132 15.584 150.132 16.8C150.132 18.016 149.708 19.048 148.86 19.896ZM143.652 18.96C144.236 19.528 144.944 19.812 145.776 19.812C146.616 19.812 147.32 19.528 147.888 18.96C148.464 18.384 148.752 17.664 148.752 16.8C148.752 15.936 148.464 15.22 147.888 14.652C147.32 14.076 146.616 13.788 145.776 13.788C144.936 13.788 144.228 14.076 143.652 14.652C143.084 15.22 142.8 15.936 142.8 16.8C142.8 17.656 143.084 18.376 143.652 18.96ZM155.391 12.6H158.487C159.279 12.6 159.939 12.864 160.467 13.392C161.003 13.92 161.271 14.576 161.271 15.36C161.271 16.136 161.003 16.792 160.467 17.328C159.939 17.856 159.279 18.12 158.487 18.12H156.771V21H155.391V12.6ZM156.771 16.824H158.487C158.895 16.824 159.231 16.688 159.495 16.416C159.759 16.136 159.891 15.784 159.891 15.36C159.891 14.936 159.759 14.588 159.495 14.316C159.231 14.036 158.895 13.896 158.487 13.896H156.771V16.824ZM165.633 12.6H171.753V13.92H169.389V21H168.009V13.92H165.633V12.6ZM176.774 21V12.6H178.154V21H176.774ZM190.396 12.6H191.872V21H190.492V15.012L187.936 19.236H187.768L185.212 15V21H183.832V12.6H185.32L187.852 16.8L190.396 12.6ZM197.547 21V12.6H198.927V21H197.547ZM146.94 28.74L143.172 34.68H147.036V36H141.456V34.86L145.224 28.92H141.54V27.6H146.94V28.74ZM159.198 36H157.71L157.122 34.308H153.546L152.958 36H151.458L154.506 27.6H156.162L159.198 36ZM155.334 29.22L154.002 33.012H156.666L155.334 29.22ZM162.844 27.6H168.964V28.92H166.6V36H165.22V28.92H162.844V27.6ZM173.985 36V27.6H175.365V36H173.985ZM188.063 34.896C187.223 35.736 186.195 36.156 184.979 36.156C183.763 36.156 182.731 35.736 181.883 34.896C181.043 34.048 180.623 33.016 180.623 31.8C180.623 30.584 181.043 29.556 181.883 28.716C182.731 27.868 183.763 27.444 184.979 27.444C186.195 27.444 187.223 27.868 188.063 28.716C188.911 29.556 189.335 30.584 189.335 31.8C189.335 33.016 188.911 34.048 188.063 34.896ZM182.855 33.96C183.439 34.528 184.147 34.812 184.979 34.812C185.819 34.812 186.523 34.528 187.091 33.96C187.667 33.384 187.955 32.664 187.955 31.8C187.955 30.936 187.667 30.22 187.091 29.652C186.523 29.076 185.819 28.788 184.979 28.788C184.139 28.788 183.431 29.076 182.855 29.652C182.287 30.22 182.003 30.936 182.003 31.8C182.003 32.656 182.287 33.376 182.855 33.96ZM199.634 33.3V27.6H201.014V36H199.934L195.974 30.3V36H194.594V27.6H195.674L199.634 33.3Z" fill="#14161B"/>
</svg>
